<svg width="32" height="32" viewBox="0 0 32 32" fill="none" xmlns="http://www.w3.org/2000/svg">
<g clip-path="url(#clip0_2500_486)">
<rect width="32" height="32" fill="white"/>
<g filter="url(#filter0_dddd_2500_486)">
<path d="M8.13243 14.0461C8.70399 12.4887 10.128 11.4615 11.7157 11.4615H20.1994C21.7704 11.4615 23.183 12.4674 23.7659 14.0013L26.2219 20.4628C27.2302 23.1154 25.3722 26 22.6554 26H9.3444C6.64722 26 4.79014 23.1535 5.76113 20.5077L8.13243 14.0461Z" fill="#9F9F9F"/>
<path d="M8.13243 10.8154C8.70399 9.25793 10.128 8.23077 11.7157 8.23077H20.1994C21.7704 8.23077 23.183 9.23667 23.7659 10.7705L26.2219 17.232C27.2302 19.8846 25.3722 22.7692 22.6554 22.7692H9.3444C6.64722 22.7692 4.79014 19.9228 5.76113 17.2769L8.13243 10.8154Z" fill="#A9A9A9"/>
<path d="M8.13243 7.58461C8.70399 6.02716 10.128 5 11.7157 5H20.1994C21.7704 5 23.183 6.0059 23.7659 7.53973L26.2219 14.0013C27.2302 16.6538 25.3722 19.5385 22.6554 19.5385H9.3444C6.64722 19.5385 4.79014 16.692 5.76113 14.0461L8.13243 7.58461Z" fill="#BEBEBE"/>
</g>
</g>
<defs>
<filter id="filter0_dddd_2500_486" x="-4.5" y="4" width="41" height="56" filterUnits="userSpaceOnUse" color-interpolation-filters="sRGB">
<feFlood flood-opacity="0" result="BackgroundImageFix"/>
<feColorMatrix in="SourceAlpha" type="matrix" values="0 0 0 0 0 0 0 0 0 0 0 0 0 0 0 0 0 0 127 0" result="hardAlpha"/>
<feOffset dy="2"/>
<feGaussianBlur stdDeviation="1.5"/>
<feColorMatrix type="matrix" values="0 0 0 0 0.333333 0 0 0 0 0.333333 0 0 0 0 0.333333 0 0 0 0.05 0"/>
<feBlend mode="normal" in2="BackgroundImageFix" result="effect1_dropShadow_2500_486"/>
<feColorMatrix in="SourceAlpha" type="matrix" values="0 0 0 0 0 0 0 0 0 0 0 0 0 0 0 0 0 0 127 0" result="hardAlpha"/>
<feOffset dy="6"/>
<feGaussianBlur stdDeviation="3"/>
<feColorMatrix type="matrix" values="0 0 0 0 0.333333 0 0 0 0 0.333333 0 0 0 0 0.333333 0 0 0 0.04 0"/>
<feBlend mode="normal" in2="effect1_dropShadow_2500_486" result="effect2_dropShadow_2500_486"/>
<feColorMatrix in="SourceAlpha" type="matrix" values="0 0 0 0 0 0 0 0 0 0 0 0 0 0 0 0 0 0 127 0" result="hardAlpha"/>
<feOffset dy="13"/>
<feGaussianBlur stdDeviation="4"/>
<feColorMatrix type="matrix" values="0 0 0 0 0.333333 0 0 0 0 0.333333 0 0 0 0 0.333333 0 0 0 0.03 0"/>
<feBlend mode="normal" in2="effect2_dropShadow_2500_486" result="effect3_dropShadow_2500_486"/>
<feColorMatrix in="SourceAlpha" type="matrix" values="0 0 0 0 0 0 0 0 0 0 0 0 0 0 0 0 0 0 127 0" result="hardAlpha"/>
<feOffset dy="24"/>
<feGaussianBlur stdDeviation="5"/>
<feColorMatrix type="matrix" values="0 0 0 0 0.333333 0 0 0 0 0.333333 0 0 0 0 0.333333 0 0 0 0.01 0"/>
<feBlend mode="normal" in2="effect3_dropShadow_2500_486" result="effect4_dropShadow_2500_486"/>
<feBlend mode="normal" in="SourceGraphic" in2="effect4_dropShadow_2500_486" result="shape"/>
</filter>
<clipPath id="clip0_2500_486">
<rect width="32" height="32" fill="white"/>
</clipPath>
</defs>
</svg>
